{
  "source": "C:\\Users\\Peter\\Desktop\\stuff\\MIUN\\quantitative_research\\video_compression\\videos\\BVI-HD\\BVI-HD_CDVL_videos\\ORIG\\Rowing_1920x1080_30fps.mp4",
  "output": "C:\\Users\\Peter\\Desktop\\stuff\\MIUN\\quantitative_research\\video_compression\\compressed_videos\\BVI-HD\\h264\\1\\Rowing_1920x1080_30fps_h264.mp4",
  "codec": "h264",
  "ok": "Input #0, mov,mp4,m4a,3gp,3g2,mj2, from 'C:\\Users\\Peter\\Desktop\\stuff\\MIUN\\quantitative_research\\video_compression\\videos\\BVI-HD\\BVI-HD_CDVL_videos\\ORIG\\Rowing_1920x1080_30fps.mp4':\n  Metadata:\n    major_brand     : isom\n    minor_version   : 512\n    compatible_brands: isomiso2avc1mp41\n    encoder         : Lavf54.28.101\n  Duration: 00:00:05.00, start: 0.000000, bitrate: 259220 kb/s\n  Stream #0:0[0x1](und): Video: h264 (High 4:4:4 Predictive) (avc1 / 0x31637661), yuv420p(progressive), 1920x1080, 259216 kb/s, 30 fps, 30 tbr, 30 tbn (default)\n    Metadata:\n      handler_name    : VideoHandler\n      vendor_id       : [0][0][0][0]\n[out#0/mp4 @ 000002210ddd9a40] Codec AVOption b:a (set bitrate (in bits/s)) has not been used for any stream. The most likely reason is either wrong type (e.g. a video option with no video streams) or that it is a private option of some decoder which was not actually used for any stream.\nStream mapping:\n  Stream #0:0 -> #0:0 (h264 (native) -> h264 (libx264))\nPress [q] to stop, [?] for help\n[libx264 @ 000002210fe90a40] using cpu capabilities: MMX2 SSE2Fast SSSE3 SSE4.2 AVX FMA3 BMI2 AVX2\n[libx264 @ 000002210fe90a40] profile High, level 5.0, 4:2:0, 8-bit\n[libx264 @ 000002210fe90a40] 264 - core 165 r3222 b35605a - H.264/MPEG-4 AVC codec - Copyleft 2003-2025 - http://www.videolan.org/x264.html - options: cabac=1 ref=5 deblock=1:0:0 analyse=0x3:0x113 me=hex subme=8 psy=1 psy_rd=1.00:0.00 mixed_ref=1 me_range=16 chroma_me=1 trellis=2 8x8dct=1 cqm=0 deadzone=21,11 fast_pskip=1 chroma_qp_offset=-2 threads=18 lookahead_threads=3 sliced_threads=0 nr=0 decimate=1 interlaced=0 bluray_compat=0 constrained_intra=0 bframes=3 b_pyramid=2 b_adapt=1 b_bias=0 direct=3 weightb=1 open_gop=0 weightp=2 keyint=250 keyint_min=25 scenecut=40 intra_refresh=0 rc_lookahead=50 rc=cbr mbtree=1 bitrate=1000 ratetol=1.0 qcomp=0.60 qpmin=0 qpmax=69 qpstep=4 vbv_maxrate=1000 vbv_bufsize=1000 nal_hrd=none filler=0 ip_ratio=1.40 aq=1:1.00\nOutput #0, mp4, to 'C:\\Users\\Peter\\Desktop\\stuff\\MIUN\\quantitative_research\\video_compression\\compressed_videos\\BVI-HD\\h264\\1\\Rowing_1920x1080_30fps_h264.mp4':\n  Metadata:\n    major_brand     : isom\n    minor_version   : 512\n    compatible_brands: isomiso2avc1mp41\n    encoder         : Lavf62.3.100\n  Stream #0:0(und): Video: h264 (avc1 / 0x31637661), yuv420p(tv, progressive), 1920x1080, q=2-31, 1000 kb/s, 30 fps, 15360 tbn (default)\n    Metadata:\n      encoder         : Lavc62.11.100 libx264\n      handler_name    : VideoHandler\n      vendor_id       : [0][0][0][0]\n    Side data:\n      cpb: bitrate max/min/avg: 1000000/0/1000000 buffer size: 1000000 vbv_delay: N/A\nframe=    0 fps=0.0 q=0.0 size=       0KiB time=N/A bitrate=N/A speed=N/A elapsed=0:00:01.10    \nframe=    0 fps=0.0 q=0.0 size=       0KiB time=N/A bitrate=N/A speed=N/A elapsed=0:00:01.75    \nframe=    0 fps=0.0 q=0.0 size=       0KiB time=N/A bitrate=N/A speed=N/A elapsed=0:00:02.31    \nframe=    0 fps=0.0 q=0.0 size=       0KiB time=N/A bitrate=N/A speed=N/A elapsed=0:00:02.92    \nframe=    1 fps=0.3 q=56.0 size=       0KiB time=-00:00:00.03 bitrate=N/A speed=N/A elapsed=0:00:03.48    \nframe=   17 fps=4.2 q=53.0 size=       0KiB time=00:00:00.46 bitrate=   0.8kbits/s speed=0.116x elapsed=0:00:04.01    \nframe=   31 fps=6.8 q=52.0 size=       0KiB time=00:00:00.93 bitrate=   0.4kbits/s speed=0.203x elapsed=0:00:04.59    \nframe=   45 fps=8.8 q=52.0 size=       0KiB time=00:00:01.40 bitrate=   0.3kbits/s speed=0.272x elapsed=0:00:05.13    \nframe=   59 fps= 10 q=50.0 size=       0KiB time=00:00:01.90 bitrate=   0.2kbits/s speed=0.333x elapsed=0:00:05.71    \nframe=   73 fps= 12 q=52.0 size=       0KiB time=00:00:02.36 bitrate=   0.2kbits/s speed=0.38x elapsed=0:00:06.23    \nframe=  104 fps= 15 q=51.0 size=     256KiB time=00:00:03.26 bitrate= 642.1kbits/s speed=0.484x elapsed=0:00:06.75    \nframe=  148 fps= 20 q=-1.0 size=     256KiB time=00:00:04.86 bitrate= 431.0kbits/s speed=0.667x elapsed=0:00:07.29    \n[mp4 @ 000002210dde1400] Starting second pass: moving the moov atom to the beginning of the file\n[out#0/mp4 @ 000002210ddd9a40] video:494KiB audio:0KiB subtitle:0KiB other streams:0KiB global headers:0KiB muxing overhead: 0.289780%\nframe=  150 fps= 20 q=-1.0 Lsize=     496KiB time=00:00:04.93 bitrate= 823.3kbits/s speed=0.674x elapsed=0:00:07.32    \n[libx264 @ 000002210fe90a40] frame I:1     Avg QP:50.38  size:  3464\n[libx264 @ 000002210fe90a40] frame P:149   Avg QP:49.46  size:  3369\n[libx264 @ 000002210fe90a40] mb I  I16..4: 27.8% 72.2%  0.0%\n[libx264 @ 000002210fe90a40] mb P  I16..4: 16.1%  6.1%  0.0%  P16..4: 11.9%  0.3%  0.4%  0.0%  0.0%    skip:65.2%\n[libx264 @ 000002210fe90a40] 8x8 transform intra:28.8% inter:99.5%\n[libx264 @ 000002210fe90a40] coded y,uvDC,uvAC intra: 0.7% 12.3% 0.0% inter: 0.4% 2.6% 0.0%\n[libx264 @ 000002210fe90a40] i16 v,h,dc,p: 47% 34%  5% 15%\n[libx264 @ 000002210fe90a40] i8 v,h,dc,ddl,ddr,vr,hd,vl,hu:  2%  2% 85%  1%  4%  1%  3%  1%  2%\n[libx264 @ 000002210fe90a40] i8c dc,h,v,p: 99%  1%  0%  0%\n[libx264 @ 000002210fe90a40] Weighted P-Frames: Y:0.0% UV:0.0%\n[libx264 @ 000002210fe90a40] ref P L0: 33.1%  0.7% 25.4% 13.6% 13.3% 13.9%\n[libx264 @ 000002210fe90a40] kb/s:808.77\n",
  "seconds": 7.7054033279418945,
  "probe_out": {}
}